<svg version="1.2" xmlns="http://www.w3.org/2000/svg" viewBox="0 0 146 138" width="146" height="138"><defs><clipPath clipPathUnits="userSpaceOnUse" id="cp1"><path d="m67.17 16.91l-41.54 31.24v75.65h83.07v-75.65z"/></clipPath></defs><style>.a{fill:#c49568}.b{fill:#ad825a}.c{fill:#c70a11}.d{fill:#f3eae1}.e{fill:#b1a8a1}.f{fill:#c3dceb}.g{mix-blend-mode:multiply;fill:#ede4dc}.h{fill:#9ec4d9}.i{fill:#f7ad3e}.j{fill:#ad0007}.k{fill:#a69990}.l{fill:#8c6139}.m{fill:#53820e}.n{fill:#235982}.o{fill:#fff}</style><path class="a" d="m86.3 17.7h15v26.4h-15z"/><g clip-path="url(#cp1)"></g><path class="a" d="m23.4 109.6h22.7v12h-22.7z"/><path fill-rule="evenodd" class="b" d="m22.2 108.5h25.1v14.2h-25.1zm2.3 12.1h20.5v-9.9h-20.5z"/><path class="a" d="m46.1 109.6h22.8v12h-22.8z"/><path fill-rule="evenodd" class="b" d="m45 108.5h25.1v14.2h-25.1zm2.3 12.1h20.5v-9.9h-20.5z"/><path class="a" d="m68.9 109.6h22.8v12h-22.8z"/><path fill-rule="evenodd" class="b" d="m67.8 108.5h25v14.2h-25zm2.3 12.1h20.5v-9.9h-20.5z"/><path class="a" d="m91.7 109.6h22.8v12h-22.8z"/><path fill-rule="evenodd" class="b" d="m90.6 108.5h25v14.2h-25zm2.2 12.1h20.5v-9.9h-20.5z"/><path class="a" d="m116.7 109.6h22.8v12h-22.8z"/><path fill-rule="evenodd" class="b" d="m115.6 108.5h25.1v14.2h-25.1zm2.3 12.1h20.5v-9.9h-20.5z"/><path class="a" d="m14.2 97.5h22.8v12.1h-22.8z"/><path fill-rule="evenodd" class="b" d="m13.1 96.4h25.1v14.3h-25.1zm2.3 12h20.5v-9.8h-20.5z"/><path class="a" d="m37 97.5h22.8v12.1h-22.8z"/><path fill-rule="evenodd" class="b" d="m35.9 96.4h25v14.3h-25zm2.3 12h20.5v-9.8h-20.5z"/><path class="a" d="m59.8 97.5h22.8v12.1h-22.8z"/><path fill-rule="evenodd" class="b" d="m58.7 96.4h25v14.3h-25zm2.2 12h20.5v-9.8h-20.5z"/><path class="a" d="m82.6 97.5h22.8v12.1h-22.8z"/><path fill-rule="evenodd" class="b" d="m81.4 96.4h25.1v14.3h-25.1zm2.3 12h20.5v-9.8h-20.5z"/><path class="a" d="m105.4 97.5h22.7v12.1h-22.7z"/><path fill-rule="evenodd" class="b" d="m104.2 96.4h25.1v14.3h-25.1zm2.3 12h20.5v-9.8h-20.5z"/><path class="a" d="m22.6 85.5h22.8v12h-22.8z"/><path fill-rule="evenodd" class="b" d="m21.5 84.4h25v14.2h-25zm2.2 12.1h20.5v-9.9h-20.5z"/><path class="a" d="m45.4 85.5h22.8v12h-22.8z"/><path fill-rule="evenodd" class="b" d="m44.2 84.4h25.1v14.2h-25.1zm2.3 12.1h20.5v-9.9h-20.5z"/><path class="a" d="m68.2 85.5h22.7v12h-22.7z"/><path fill-rule="evenodd" class="b" d="m67 84.4h25.1v14.2h-25.1zm2.3 12.1h20.5v-9.9h-20.5z"/><path class="a" d="m90.9 85.5h22.8v12h-22.8z"/><path fill-rule="evenodd" class="b" d="m89.8 84.4h25.1v14.2h-25.1zm2.3 12.1h20.5v-9.9h-20.5z"/><path class="a" d="m113.7 85.5h22.8v12h-22.8z"/><path fill-rule="evenodd" class="b" d="m112.6 84.4h25v14.2h-25zm2.3 12.1h20.5v-9.9h-20.5z"/><path class="a" d="m11.2 73.4h22.8v12.1h-22.8z"/><path fill-rule="evenodd" class="b" d="m10.1 72.3h25v14.3h-25zm2.2 12h20.5v-9.8h-20.5z"/><path class="a" d="m34 73.4h22.8v12.1h-22.8z"/><path fill-rule="evenodd" class="b" d="m32.8 72.3h25.1v14.3h-25.1zm2.3 12h20.5v-9.8h-20.5z"/><path class="a" d="m56.8 73.4h22.7v12.1h-22.7z"/><path fill-rule="evenodd" class="b" d="m55.6 72.3h25.1v14.3h-25.1zm2.3 12h20.5v-9.8h-20.5z"/><path class="a" d="m79.5 73.4h22.8v12.1h-22.8z"/><path fill-rule="evenodd" class="b" d="m78.4 72.3h25.1v14.3h-25.1zm2.3 12h20.5v-9.8h-20.5z"/><path class="a" d="m102.3 73.4h22.8v12.1h-22.8z"/><path fill-rule="evenodd" class="b" d="m101.2 72.3h25v14.3h-25zm2.3 12h20.5v-9.8h-20.5z"/><path class="a" d="m19.6 61.4h22.7v12h-22.7z"/><path fill-rule="evenodd" class="b" d="m18.4 60.3h25.1v14.2h-25.1zm2.3 12.1h20.5v-9.9h-20.5z"/><path class="a" d="m42.3 61.4h22.8v12h-22.8z"/><path fill-rule="evenodd" class="b" d="m41.2 60.3h25.1v14.2h-25.1zm2.3 12.1h20.5v-9.9h-20.5z"/><path class="a" d="m65.1 61.4h22.8v12h-22.8z"/><path fill-rule="evenodd" class="b" d="m64 60.3h25v14.2h-25zm2.3 12.1h20.5v-9.9h-20.5z"/><path class="a" d="m87.9 61.4h22.8v12h-22.8z"/><path fill-rule="evenodd" class="b" d="m86.8 60.3h25v14.2h-25zm2.2 12.1h20.5v-9.9h-20.5z"/><path class="a" d="m110.7 61.4h22.8v12h-22.8z"/><path fill-rule="evenodd" class="b" d="m109.5 60.3h25.1v14.2h-25.1zm2.3 12.1h20.5v-9.9h-20.5z"/><path class="a" d="m8.2 49.4h22.8v12h-22.8z"/><path fill-rule="evenodd" class="b" d="m7 48.3h25.1v14.2h-25.1zm2.3 12h20.5v-9.8h-20.5z"/><path class="a" d="m31 49.4h22.7v12h-22.7z"/><path fill-rule="evenodd" class="b" d="m29.8 48.3h25.1v14.2h-25.1zm2.3 12h20.5v-9.8h-20.5z"/><path class="a" d="m53.7 49.4h22.8v12h-22.8z"/><path fill-rule="evenodd" class="b" d="m52.6 48.3h25v14.2h-25zm2.3 12h20.5v-9.8h-20.5z"/><path class="a" d="m76.5 49.4h22.8v12h-22.8z"/><path fill-rule="evenodd" class="b" d="m75.4 48.3h25v14.2h-25zm2.2 12h20.6v-9.8h-20.6z"/><path class="a" d="m99.3 49.4h22.8v12h-22.8z"/><path fill-rule="evenodd" class="b" d="m98.2 48.3h25v14.2h-25zm2.2 12h20.5v-9.8h-20.5z"/><path class="a" d="m16.5 37.3h22.8v12.1h-22.8z"/><path fill-rule="evenodd" class="b" d="m15.4 36.2h25v14.3h-25zm2.3 12h20.5v-9.9h-20.5z"/><path class="a" d="m39.3 37.3h22.8v12.1h-22.8z"/><path fill-rule="evenodd" class="b" d="m38.2 36.2h25v14.3h-25zm2.2 12h20.5v-9.9h-20.5z"/><path class="a" d="m62.1 37.3h22.8v12.1h-22.8z"/><path fill-rule="evenodd" class="b" d="m60.9 36.2h25.1v14.3h-25.1zm2.3 12h20.5v-9.9h-20.5z"/><path class="a" d="m84.9 37.3h22.7v12.1h-22.7z"/><path fill-rule="evenodd" class="b" d="m83.7 36.2h25.1v14.3h-25.1zm2.3 12h20.5v-9.9h-20.5z"/><path class="a" d="m107.6 37.3h22.8v12.1h-22.8z"/><path fill-rule="evenodd" class="b" d="m106.5 36.2h25.1v14.3h-25.1zm2.3 12h20.5v-9.9h-20.5z"/><path class="a" d="m5.1 25.3h22.8v12h-22.8z"/><path fill-rule="evenodd" class="b" d="m4 24.2h25.1v14.2h-25.1zm2.3 12.1h20.5v-9.9h-20.5z"/><path class="a" d="m27.9 25.3h22.8v12h-22.8z"/><path fill-rule="evenodd" class="b" d="m26.8 24.2h25v14.2h-25zm2.3 12.1h20.5v-9.9h-20.5z"/><path class="a" d="m50.7 25.3h22.8v12h-22.8z"/><path fill-rule="evenodd" class="b" d="m49.6 24.2h25v14.2h-25zm2.2 12.1h20.5v-9.9h-20.5z"/><path class="a" d="m73.5 25.3h22.8v12h-22.8z"/><path fill-rule="evenodd" class="b" d="m72.3 24.2h25.1v14.2h-25.1zm2.3 12.1h20.5v-9.9h-20.5z"/><path class="a" d="m96.3 25.3h22.7v12h-22.7z"/><path fill-rule="evenodd" class="b" d="m95.1 24.2h25.1v14.2h-25.1zm2.3 12.1h20.5v-9.9h-20.5z"/><path class="a" d="m13.5 13.2h22.8v12.1h-22.8z"/><path fill-rule="evenodd" class="b" d="m12.4 12.1h25v14.3h-25zm2.2 12h20.5v-9.8h-20.5z"/><path class="a" d="m36.3 13.2h22.7v12.1h-22.7z"/><path fill-rule="evenodd" class="b" d="m35.1 12.1h25.1v14.3h-25.1zm2.3 12h20.5v-9.8h-20.5z"/><path class="a" d="m59 13.2h22.8v12.1h-22.8z"/><path fill-rule="evenodd" class="b" d="m57.9 12.1h25.1v14.3h-25.1zm2.3 12h20.5v-9.8h-20.5z"/><path class="a" d="m81.8 13.2h22.8v12.1h-22.8z"/><path fill-rule="evenodd" class="b" d="m80.7 12.1h25v14.3h-25zm2.3 12h20.5v-9.8h-20.5z"/><path class="a" d="m104.6 13.2h22.8v12.1h-22.8z"/><path fill-rule="evenodd" class="b" d="m103.5 12.1h25v14.3h-25zm2.2 12h20.5v-9.8h-20.5z"/><path class="a" d="m2.1 1.2h22.8v12h-22.8z"/><path fill-rule="evenodd" class="b" d="m1 0.1h25v14.2h-25zm2.2 12.1h20.5v-9.9h-20.5z"/><path class="a" d="m24.9 1.2h22.8v12h-22.8z"/><path fill-rule="evenodd" class="b" d="m23.7 0.1h25.1v14.2h-25.1zm2.3 12.1h20.5v-9.9h-20.5z"/><path class="a" d="m47.7 1.2h22.7v12h-22.7z"/><path fill-rule="evenodd" class="b" d="m46.5 0.1h25.1v14.2h-25.1zm2.3 12.1h20.5v-9.9h-20.5z"/><path class="a" d="m70.4 1.2h22.8v12h-22.8z"/><path fill-rule="evenodd" class="b" d="m69.3 0.1h25.1v14.2h-25.1zm2.3 12.1h20.5v-9.9h-20.5z"/><path class="a" d="m93.2 1.2h22.8v12h-22.8z"/><path fill-rule="evenodd" class="b" d="m92.1 0.1h25v14.2h-25zm2.3 12.1h20.5v-9.9h-20.5z"/><path class="c" d="m17.5 56l-4.2-5.4 53.9-42 53.8 42-4.2 5.4-49.6-38.7z"/><path class="b" d="m84.7 13.8h18.2v5.2h-18.2z"/><path class="d" d="m54.5 67.4h25.3v51.9h-25.3z"/><path class="e" d="m20.1 117.4h94.1v7.9h-94.1z"/><path class="d" d="m67.2 54.8c-6 0-10.8-4.8-10.8-10.7 0-6 4.8-10.8 10.8-10.8 5.9 0 10.7 4.8 10.7 10.8 0 5.9-4.8 10.7-10.7 10.7z"/><path class="f" d="m67.2 52.6c-4.8 0-8.6-3.8-8.6-8.5 0-4.8 3.8-8.6 8.6-8.6 4.7 0 8.5 3.8 8.5 8.6 0 4.7-3.8 8.5-8.5 8.5z"/><path class="d" d="m74.5 50.1l-6.1-6 6.1-6.1-1.2-1.2-6.1 6.1-6-6.1-1.2 1.2 6 6.1-6 6 1.2 1.2 6-6 6.1 6z"/><path class="d" d="m33.9 62.6h12.7v46.2h-12.7z"/><path class="g" d="m67.2 17v-0.1l-41.6 31.3v75.6h41.6z"/><path class="f" d="m57.9 70.8h18.6v13.3h-18.6z"/><path class="f" d="m57.9 87.7h18.6v13.2h-18.6z"/><path class="h" d="m35.6 94.3h9.3v12.6h-9.3z"/><path class="h" d="m35.6 79.4h9.3v12.6h-9.3z"/><path class="h" d="m35.6 64.5h9.3v12.6h-9.3z"/><path class="d" d="m87.7 62.6h12.7v46.2h-12.7z"/><path class="f" d="m89.4 94.3h9.3v12.6h-9.3z"/><path class="f" d="m89.4 79.4h9.3v12.6h-9.3z"/><path class="f" d="m89.4 64.5h9.3v12.6h-9.3z"/><path class="i" d="m77.5 95.2c-1 0-1.8-0.8-1.8-1.9 0-1 0.8-1.8 1.8-1.8 1.1 0 1.9 0.8 1.9 1.8 0 1.1-0.8 1.9-1.9 1.9z"/><path class="h" d="m57.9 70.8h9.3v13.3h-9.3z"/><path class="h" d="m57.9 87.7h9.3v13.2h-9.3z"/><path class="j" d="m67.2 8.6l-53.9 42 4.2 5.4 49.7-38.7z"/><path class="k" d="m20.1 117.4h47.1v7.9h-47.1z"/><path class="h" d="m60.6 38.7c-1.2 1.4-2 3.3-2 5.4 0 2 0.8 3.9 2 5.4l5.4-5.4z"/><path class="h" d="m67.2 35.5q0 0 0 0c-2.1 0-3.9 0.8-5.4 2l5.4 5.4z"/><path class="h" d="m67.2 52.6q0 0 0 0v-7.3l-5.4 5.4c1.5 1.2 3.3 1.9 5.4 1.9z"/><path class="l" d="m109 69.5c0-1.8 1.5-3.3 3.3-3.3h0.6c1.8 0 3.3 1.5 3.3 3.3v65.3c0 1.8-1.5 3.3-3.3 3.3h-0.6c-1.8 0-3.3-1.5-3.3-3.3z"/><path class="m" d="m120.5 133.7c-0.4-7.8 4-10.5 4-10.5-5.2 2.1-6.9 10.5-6.9 10.5-1.7-6.1 2.3-14.1 2.3-14.1-4 3.1-5.7 11.3-6.1 13.8 0.4-3.2-0.2-8.9-0.2-8.9-1 3.9-2.1 6.4-2.1 6.4-2.8-7.7-1.4-14.8-1.4-14.8-3.6 8.5-1.2 17.6-1.2 17.6-0.7-5.4-8.2-8.1-8.2-8.1 3.3 3.3 5.1 6 6 8-1.4-0.5-3.2-1-4.6-0.3 0 0 4.2 1.2 5.4 4.8q0 0 0 0h13.9c-0.5-4.2 3.1-7.4 3.1-7.4-2.1 0.5-4 3-4 3z"/><path class="n" d="m80 78.1c0-3.4 2.7-6.1 6.1-6.1h52.9c3.4 0 6.2 2.7 6.2 6.1v18.4c0 3.4-2.8 6.2-6.2 6.2h-52.9c-3.4 0-6.1-2.8-6.1-6.2z"/><path fill-rule="evenodd" class="o" d="m89.1 81q0.5-0.1 1-0.1 0.6-0.1 1.1-0.2 0.6 0 1.1 0 0.5 0 0.9 0 1 0 2 0.1 1 0.2 1.8 0.7 0.7 0.4 1.2 1.2 0.5 0.8 0.5 2 0 1.8-0.9 2.9-0.8 1.1-2.2 1.6l1 0.6 3.3 5.5h-3.2l-3.3-5.7-1.5-0.2v5.9h-2.8zm4.3 2.2q-0.4 0-0.8 0-0.4 0-0.7 0.1v4.1h1.2q1.2 0 1.9-0.5 0.7-0.5 0.7-1.8 0-0.9-0.6-1.4-0.6-0.5-1.7-0.5z"/><path class="o" d="m101.5 80.9h8.6v2.5h-5.8v3.3h5.2v2.6h-5.2v3.5h5.9v2.5h-8.7z"/><path class="o" d="m115.9 87.8l-1.2-2.3h-0.1l0.3 2.3v7.5h-2.6v-14.5h2l5.5 7.7 1.1 2.2h0.1l-0.3-2.2v-7.6h2.6v14.5h-2z"/><path class="o" d="m136 83.4h-4.2v11.9h-2.8v-11.9h-4.2v-2.5h11.2z"/></svg>