<svg version="1.2" xmlns="http://www.w3.org/2000/svg" viewBox="0 0 426 426" width="426" height="426"><style>.a{fill:#7065f0}</style><path fill-rule="evenodd" class="a" d="m346.7 133.4c0 39.8-21.8 100.9-64.9 181.4-31.8 59.7-64.1 108.5-64.5 109-0.8 1.3-2.3 2.1-3.8 2.2q-0.1 0-0.2 0c-1.5 0-2.9-0.8-3.8-2-0.3-0.4-32.9-44.3-65-101.6-43.3-77.2-65.2-140.8-65.2-189 0-73.6 59.8-133.4 133.4-133.4h0.6c73.5 0 133.4 59.8 133.4 133.4zm-133.7-58.7c-34.1 0-61.9 27.8-61.9 61.9 0 34.1 27.8 61.9 61.9 61.9 34.1 0 61.9-27.8 61.9-61.9 0-34.1-27.8-61.9-61.9-61.9z"/></svg>