<svg width="24" height="24" viewBox="0 0 24 24" fill="none" xmlns="http://www.w3.org/2000/svg">
<g clip-path="url(#clip0_2_17790)">
<path d="M23.7749 22.0781L1.34988 0.164531C1.28837 0.102974 1.21777 0.0571636 1.14209 0.0297147C1.06642 0.00226593 0.987167 -0.00628338 0.908852 0.00455496C0.830537 0.0153933 0.754698 0.045407 0.685662 0.0928825C0.616627 0.140358 0.555749 0.204365 0.506503 0.28125L0.131503 0.866719C0.0821419 0.94363 0.0453978 1.03195 0.0233733 1.12663C0.00134889 1.22132 -0.00552354 1.3205 0.00314927 1.4185C0.0118221 1.51651 0.0358699 1.61141 0.0739167 1.69778C0.111964 1.78416 0.163263 1.86031 0.224878 1.92188L22.6499 23.8355C22.7114 23.897 22.782 23.9428 22.8577 23.9703C22.9333 23.9977 23.0126 24.0063 23.0909 23.9954C23.1692 23.9846 23.2451 23.9546 23.3141 23.9071C23.3831 23.8596 23.444 23.7956 23.4933 23.7188L23.8683 23.1333C23.9176 23.0564 23.9544 22.968 23.9764 22.8734C23.9984 22.7787 24.0053 22.6795 23.9966 22.5815C23.9879 22.4835 23.9639 22.3886 23.9258 22.3022C23.8878 22.2158 23.8365 22.1397 23.7749 22.0781ZM11.1295 6.86578L16.1841 11.8055C16.1009 8.99578 14.2679 6.75 11.9999 6.75C11.7073 6.75068 11.4156 6.78949 11.1295 6.86578ZM12.8703 17.1347L7.81563 12.195C7.89925 15.0042 9.73225 17.25 11.9999 17.25C12.2924 17.2492 12.5841 17.2106 12.8703 17.1347ZM11.9999 5.25C15.6993 5.25 19.0908 7.82812 20.9223 12C20.4733 13.0267 19.9186 13.9755 19.2723 14.8219L20.6875 16.2047C21.4754 15.151 22.143 13.9662 22.6713 12.6839C22.757 12.4718 22.8017 12.2374 22.8017 11.9998C22.8017 11.7621 22.757 11.5277 22.6713 11.3156C20.6358 6.35578 16.6098 3 11.9999 3C10.6236 3 9.31075 3.32813 8.07625 3.88172L9.81663 5.58281C10.5269 5.38125 11.2544 5.25 11.9999 5.25ZM11.9999 18.75C8.3005 18.75 4.90938 16.1719 3.0775 12C3.52705 10.9733 4.08241 10.0247 4.72938 9.17859L3.31413 7.79578C2.52631 8.84929 1.85886 10.034 1.33075 11.3161C1.24497 11.5282 1.20027 11.7626 1.20027 12.0002C1.20027 12.2379 1.24497 12.4723 1.33075 12.6844C3.36438 17.6442 7.39038 21 11.9999 21C13.3761 21 14.689 20.6695 15.9235 20.1183L14.1831 18.4177C13.4729 18.6187 12.7458 18.75 11.9999 18.75Z" fill="#7065F0"/>
</g>
<defs>
<clipPath id="clip0_2_17790">
<rect width="24" height="24" fill="white"/>
</clipPath>
</defs>
</svg>
