<svg width="24" height="24" viewBox="0 0 24 24" fill="none" xmlns="http://www.w3.org/2000/svg">
<g clip-path="url(#clip0_2_17792)">
<path d="M12 6.75C11.5584 6.75777 11.12 6.83669 10.6983 6.98438C10.8934 7.37031 10.9972 7.80605 11 8.25C11 8.59472 10.9396 8.93606 10.8224 9.25454C10.7051 9.57302 10.5332 9.8624 10.3166 10.1062C10.0999 10.3499 9.84266 10.5433 9.55957 10.6752C9.27648 10.8071 8.97306 10.875 8.66664 10.875C8.27202 10.8719 7.88469 10.7551 7.54164 10.5356C7.27099 11.5916 7.30254 12.7167 7.63181 13.7514C7.96109 14.7861 8.5714 15.678 9.3763 16.3008C10.1812 16.9236 11.1399 17.2457 12.1165 17.2215C13.0932 17.1973 14.0384 16.828 14.8181 16.1659C15.5978 15.5038 16.1726 14.5825 16.4611 13.5325C16.7495 12.4825 16.737 11.357 16.4253 10.3154C16.1135 9.27388 15.5184 8.36906 14.7242 7.72915C13.9299 7.08924 12.9769 6.74668 12 6.75ZM23.855 11.3156C21.5954 6.35578 17.1221 3 12 3C6.87789 3 2.40331 6.35813 0.144977 11.3161C0.0496613 11.5282 0 11.7626 0 12.0002C0 12.2379 0.0496613 12.4723 0.144977 12.6844C2.40456 17.6442 6.87789 21 12 21C17.1221 21 21.5966 17.6419 23.855 12.6839C23.9503 12.4718 24 12.2374 24 11.9998C24 11.7621 23.9503 11.5277 23.855 11.3156ZM12 18.75C7.88956 18.75 4.12123 16.1719 2.08623 12C4.12123 7.82813 7.88914 5.25 12 5.25C16.1108 5.25 19.8787 7.82813 21.9137 12C19.8791 16.1719 16.1108 18.75 12 18.75Z" fill="#7065F0"/>
</g>
<defs>
<clipPath id="clip0_2_17792">
<rect width="24" height="24" fill="white"/>
</clipPath>
</defs>
</svg>
