<svg width="24" height="24" viewBox="0 0 24 24" fill="none" xmlns="http://www.w3.org/2000/svg">
<path d="M12.222 5.97732C13.6434 5.95341 15.0169 6.49073 16.0448 7.47277L18.9129 4.60459C17.1029 2.90459 14.7051 1.9712 12.222 2.00004C8.44107 1.99859 4.98285 4.13051 3.28564 7.50914L6.62656 10.1C7.41436 7.66788 9.66566 6.00913 12.222 5.97732Z" fill="#EA4335"/>
<path d="M3.28532 7.50903C1.86713 10.335 1.86713 13.6649 3.28532 16.4908L6.62619 13.9C6.20807 12.6678 6.20807 11.3321 6.62619 10.1L3.28532 7.50903Z" fill="#EA4335"/>
<path d="M15.6084 17.0682C12.8044 18.8681 9.07225 18.054 7.27244 15.25C7.00194 14.8285 6.78496 14.3751 6.62651 13.9L3.28564 16.4909C4.98282 19.8696 8.44106 22.0015 12.222 22C14.6563 22.066 17.0238 21.1994 18.8402 19.5773L15.6084 17.0682Z" fill="#34A853"/>
<path d="M21.6398 10.1818H12.2217V14.0499H17.6034C17.3785 15.2863 16.6575 16.3768 15.608 17.0681C15.6049 17.0702 15.6016 17.0717 15.5984 17.0737C15.6016 17.0717 15.6049 17.0702 15.608 17.0682L18.8398 19.5773L18.8398 19.5772C20.8301 17.6603 21.9138 14.989 21.8217 12.2272C21.8222 11.5413 21.7614 10.8568 21.6398 10.1818Z" fill="#4285F4"/>
</svg>
