<svg width="25" height="25" viewBox="0 0 25 25" fill="none" xmlns="http://www.w3.org/2000/svg">
<path d="M20.8531 4.67493H5.10429C4.40838 4.67567 3.74119 4.95245 3.2491 5.44454C2.75702 5.93662 2.48024 6.60382 2.47949 7.29973V18.5489C2.48024 19.2448 2.75702 19.912 3.2491 20.4041C3.74119 20.8962 4.40838 21.1729 5.10429 21.1737H20.8531C21.549 21.1729 22.2162 20.8962 22.7083 20.4041C23.2004 19.912 23.4772 19.2448 23.4779 18.5489V7.29973C23.4772 6.60382 23.2004 5.93662 22.7083 5.44454C22.2162 4.95245 21.549 4.67567 20.8531 4.67493ZM20.1885 9.01663L13.439 14.2662C13.3074 14.3686 13.1454 14.4241 12.9787 14.4241C12.812 14.4241 12.65 14.3686 12.5184 14.2662L5.76893 9.01663C5.68963 8.95675 5.62302 8.8817 5.57298 8.79585C5.52293 8.71 5.49045 8.61506 5.47741 8.51654C5.46438 8.41803 5.47105 8.31791 5.49705 8.22199C5.52304 8.12608 5.56784 8.03629 5.62883 7.95784C5.68983 7.87939 5.76581 7.81385 5.85235 7.76502C5.9389 7.71618 6.03429 7.68504 6.13297 7.67339C6.23166 7.66174 6.33168 7.66983 6.42722 7.69717C6.52275 7.72451 6.6119 7.77056 6.68949 7.83266L12.9787 12.7242L19.2679 7.83266C19.4252 7.7139 19.6229 7.66181 19.8182 7.68766C20.0136 7.71351 20.1909 7.81522 20.3119 7.9708C20.4329 8.12638 20.4877 8.32331 20.4646 8.51903C20.4415 8.71474 20.3423 8.89349 20.1885 9.01663Z" fill="#E00000"/>
</svg>
