<svg width="24" height="24" viewBox="0 0 24 24" fill="none" xmlns="http://www.w3.org/2000/svg">
<g clip-path="url(#clip0_2_19301)">
<path d="M23.3152 16.9606L18.0652 14.7106C17.8409 14.615 17.5916 14.5948 17.3549 14.6532C17.1182 14.7115 16.9068 14.8452 16.7527 15.034L14.4277 17.8746C10.7788 16.1542 7.84228 13.2177 6.12188 9.56885L8.9625 7.24385C9.15172 7.08995 9.28565 6.87859 9.34401 6.64176C9.40237 6.40494 9.38199 6.15555 9.28594 5.93135L7.03594 0.681349C6.93052 0.439665 6.74408 0.242339 6.50876 0.123395C6.27344 0.0044511 6.00399 -0.0286547 5.74687 0.0297861L0.871875 1.15479C0.623986 1.21203 0.402818 1.3516 0.24447 1.55073C0.0861212 1.74986 -5.71036e-05 1.99678 2.83885e-08 2.25119C2.83885e-08 14.2746 9.74531 24.0012 21.75 24.0012C22.0045 24.0014 22.2515 23.9152 22.4507 23.7569C22.65 23.5985 22.7896 23.3773 22.8469 23.1293L23.9719 18.2543C24.0299 17.996 23.9961 17.7254 23.8763 17.4893C23.7564 17.2532 23.558 17.0662 23.3152 16.9606Z" fill="#7065F0"/>
</g>
<defs>
<clipPath id="clip0_2_19301">
<rect width="24" height="24" fill="white"/>
</clipPath>
</defs>
</svg>
