<svg version="1.2" xmlns="http://www.w3.org/2000/svg" viewBox="0 0 145 139" width="145" height="139"><defs><clipPath clipPathUnits="userSpaceOnUse" id="cp1"><path d="m66.55 17.58l-41.53 31.24v75.65h83.06v-75.65z"/></clipPath></defs><style>tspan{white-space:pre}.a{fill:#c49568}.b{fill:#ad825a}.c{fill:#c70a11}.d{fill:#f3eae1}.e{fill:#b1a8a1}.f{fill:#c3dceb}.g{mix-blend-mode:multiply;fill:#ede4dc}.h{fill:#9ec4d9}.i{fill:#f7ad3e}.j{fill:#ad0007}.k{fill:#a69990}.l{fill:#8c6139}.m{font-size: 24px;fill: #ffffff;font-weight: 700;font-family: "Poppins-Bold", "Poppins"}.n{fill:#53820e}</style><path class="a" d="m85.7 18.3h15v26.4h-15z"/><g clip-path="url(#cp1)"></g><path class="a" d="m22.7 110.2h22.8v12.1h-22.8z"/><path fill-rule="evenodd" class="b" d="m21.6 109.1h25.1v14.3h-25.1zm2.3 12h20.5v-9.8h-20.5z"/><path class="a" d="m45.5 110.2h22.8v12.1h-22.8z"/><path fill-rule="evenodd" class="b" d="m44.4 109.1h25v14.3h-25zm2.3 12h20.5v-9.8h-20.5z"/><path class="a" d="m68.3 110.2h22.8v12.1h-22.8z"/><path fill-rule="evenodd" class="b" d="m67.2 109.1h25v14.3h-25zm2.2 12h20.5v-9.8h-20.5z"/><path class="a" d="m91.1 110.2h22.8v12.1h-22.8z"/><path fill-rule="evenodd" class="b" d="m89.9 109.1h25.1v14.3h-25.1zm2.3 12h20.5v-9.8h-20.5z"/><path class="a" d="m116.1 110.2h22.8v12.1h-22.8z"/><path fill-rule="evenodd" class="b" d="m115 109.1h25v14.3h-25zm2.3 12h20.5v-9.8h-20.5z"/><path class="a" d="m13.6 98.2h22.8v12h-22.8z"/><path fill-rule="evenodd" class="b" d="m12.5 97.1h25v14.2h-25zm2.3 12.1h20.5v-9.9h-20.5z"/><path class="a" d="m36.4 98.2h22.8v12h-22.8z"/><path fill-rule="evenodd" class="b" d="m35.3 97.1h25v14.2h-25zm2.2 12.1h20.5v-9.9h-20.5z"/><path class="a" d="m59.2 98.2h22.8v12h-22.8z"/><path fill-rule="evenodd" class="b" d="m58 97.1h25.1v14.2h-25.1zm2.3 12.1h20.5v-9.9h-20.5z"/><path class="a" d="m82 98.2h22.7v12h-22.7z"/><path fill-rule="evenodd" class="b" d="m80.8 97.1h25.1v14.2h-25.1zm2.3 12.1h20.5v-9.9h-20.5z"/><path class="a" d="m104.7 98.2h22.8v12h-22.8z"/><path fill-rule="evenodd" class="b" d="m103.6 97.1h25.1v14.2h-25.1zm2.3 12.1h20.5v-9.9h-20.5z"/><path class="a" d="m22 86.2h22.8v12h-22.8z"/><path fill-rule="evenodd" class="b" d="m20.8 85.1h25.1v14.2h-25.1zm2.3 12h20.5v-9.8h-20.5z"/><path class="a" d="m44.8 86.2h22.7v12h-22.7z"/><path fill-rule="evenodd" class="b" d="m43.6 85.1h25.1v14.2h-25.1zm2.3 12h20.5v-9.8h-20.5z"/><path class="a" d="m67.5 86.2h22.8v12h-22.8z"/><path fill-rule="evenodd" class="b" d="m66.4 85.1h25.1v14.2h-25.1zm2.3 12h20.5v-9.8h-20.5z"/><path class="a" d="m90.3 86.2h22.8v12h-22.8z"/><path fill-rule="evenodd" class="b" d="m89.2 85.1h25v14.2h-25zm2.3 12h20.5v-9.8h-20.5z"/><path class="a" d="m113.1 86.2h22.8v12h-22.8z"/><path fill-rule="evenodd" class="b" d="m112 85.1h25v14.2h-25zm2.2 12h20.5v-9.8h-20.5z"/><path class="a" d="m10.6 74.1h22.8v12.1h-22.8z"/><path fill-rule="evenodd" class="b" d="m9.5 73h25v14.2h-25zm2.2 12.1h20.5v-9.9h-20.5z"/><path class="a" d="m33.4 74.1h22.7v12.1h-22.7z"/><path fill-rule="evenodd" class="b" d="m32.2 73h25.1v14.2h-25.1zm2.3 12.1h20.5v-9.9h-20.5z"/><path class="a" d="m56.1 74.1h22.8v12.1h-22.8z"/><path fill-rule="evenodd" class="b" d="m55 73h25.1v14.2h-25.1zm2.3 12.1h20.5v-9.9h-20.5z"/><path class="a" d="m78.9 74.1h22.8v12.1h-22.8z"/><path fill-rule="evenodd" class="b" d="m77.8 73h25v14.2h-25zm2.3 12.1h20.5v-9.9h-20.5z"/><path class="a" d="m101.7 74.1h22.8v12.1h-22.8z"/><path fill-rule="evenodd" class="b" d="m100.6 73h25v14.2h-25zm2.2 12.1h20.5v-9.9h-20.5z"/><path class="a" d="m18.9 62.1h22.8v12h-22.8z"/><path fill-rule="evenodd" class="b" d="m17.8 61h25.1v14.2h-25.1zm2.3 12.1h20.5v-9.9h-20.5z"/><path class="a" d="m41.7 62.1h22.8v12h-22.8z"/><path fill-rule="evenodd" class="b" d="m40.6 61h25v14.2h-25zm2.3 12.1h20.5v-9.9h-20.5z"/><path class="a" d="m64.5 62.1h22.8v12h-22.8z"/><path fill-rule="evenodd" class="b" d="m63.4 61h25v14.2h-25zm2.2 12.1h20.5v-9.9h-20.5z"/><path class="a" d="m87.3 62.1h22.8v12h-22.8z"/><path fill-rule="evenodd" class="b" d="m86.1 61h25.1v14.2h-25.1zm2.3 12.1h20.5v-9.9h-20.5z"/><path class="a" d="m110.1 62.1h22.7v12h-22.7z"/><path fill-rule="evenodd" class="b" d="m108.9 61h25.1v14.2h-25.1zm2.3 12.1h20.5v-9.9h-20.5z"/><path class="a" d="m7.6 50h22.7v12.1h-22.7z"/><path fill-rule="evenodd" class="b" d="m6.4 48.9h25.1v14.3h-25.1zm2.3 12h20.5v-9.8h-20.5z"/><path class="a" d="m30.3 50h22.8v12.1h-22.8z"/><path fill-rule="evenodd" class="b" d="m29.2 48.9h25v14.3h-25zm2.3 12h20.5v-9.8h-20.5z"/><path class="a" d="m53.1 50h22.8v12.1h-22.8z"/><path fill-rule="evenodd" class="b" d="m52 48.9h25v14.3h-25zm2.2 12h20.6v-9.8h-20.6z"/><path class="a" d="m75.9 50h22.8v12.1h-22.8z"/><path fill-rule="evenodd" class="b" d="m74.8 48.9h25v14.3h-25zm2.2 12h20.5v-9.8h-20.5z"/><path class="a" d="m98.7 50h22.7v12.1h-22.7z"/><path fill-rule="evenodd" class="b" d="m97.5 48.9h25.1v14.3h-25.1zm2.3 12h20.5v-9.8h-20.5z"/><path class="a" d="m15.9 38h22.8v12h-22.8z"/><path fill-rule="evenodd" class="b" d="m14.8 36.9h25v14.2h-25zm2.2 12.1h20.5v-9.9h-20.5z"/><path class="a" d="m38.7 38h22.8v12h-22.8z"/><path fill-rule="evenodd" class="b" d="m37.5 36.9h25.1v14.2h-25.1zm2.3 12.1h20.5v-9.9h-20.5z"/><path class="a" d="m61.5 38h22.7v12h-22.7z"/><path fill-rule="evenodd" class="b" d="m60.3 36.9h25.1v14.2h-25.1zm2.3 12.1h20.5v-9.9h-20.5z"/><path class="a" d="m84.2 38h22.8v12h-22.8z"/><path fill-rule="evenodd" class="b" d="m83.1 36.9h25.1v14.2h-25.1zm2.3 12.1h20.5v-9.9h-20.5z"/><path class="a" d="m107 38h22.8v12h-22.8z"/><path fill-rule="evenodd" class="b" d="m105.9 36.9h25v14.2h-25zm2.3 12.1h20.5v-9.9h-20.5z"/><path class="a" d="m4.5 25.9h22.8v12.1h-22.8z"/><path fill-rule="evenodd" class="b" d="m3.4 24.8h25v14.3h-25zm2.3 12h20.5v-9.8h-20.5z"/><path class="a" d="m27.3 25.9h22.8v12.1h-22.8z"/><path fill-rule="evenodd" class="b" d="m26.2 24.8h25v14.3h-25zm2.2 12h20.5v-9.8h-20.5z"/><path class="a" d="m50.1 25.9h22.8v12.1h-22.8z"/><path fill-rule="evenodd" class="b" d="m48.9 24.8h25.1v14.3h-25.1zm2.3 12h20.5v-9.8h-20.5z"/><path class="a" d="m72.9 25.9h22.7v12.1h-22.7z"/><path fill-rule="evenodd" class="b" d="m71.7 24.8h25.1v14.3h-25.1zm2.3 12h20.5v-9.8h-20.5z"/><path class="a" d="m95.6 25.9h22.8v12.1h-22.8z"/><path fill-rule="evenodd" class="b" d="m94.5 24.8h25.1v14.3h-25.1zm2.3 12h20.5v-9.8h-20.5z"/><path class="a" d="m12.9 13.9h22.8v12h-22.8z"/><path fill-rule="evenodd" class="b" d="m11.7 12.8h25.1v14.2h-25.1zm2.3 12.1h20.5v-9.9h-20.5z"/><path class="a" d="m35.7 13.9h22.7v12h-22.7z"/><path fill-rule="evenodd" class="b" d="m34.5 12.8h25.1v14.2h-25.1zm2.3 12.1h20.5v-9.9h-20.5z"/><path class="a" d="m58.4 13.9h22.8v12h-22.8z"/><path fill-rule="evenodd" class="b" d="m57.3 12.8h25v14.2h-25zm2.3 12.1h20.5v-9.9h-20.5z"/><path class="a" d="m81.2 13.9h22.8v12h-22.8z"/><path fill-rule="evenodd" class="b" d="m80.1 12.8h25v14.2h-25zm2.2 12.1h20.6v-9.9h-20.6z"/><path class="a" d="m104 13.9h22.8v12h-22.8z"/><path fill-rule="evenodd" class="b" d="m102.9 12.8h25v14.2h-25zm2.2 12.1h20.5v-9.9h-20.5z"/><path class="a" d="m1.5 1.9h22.8v12h-22.8z"/><path fill-rule="evenodd" class="b" d="m0.3 0.8h25.1v14.2h-25.1zm2.3 12h20.5v-9.8h-20.5z"/><path class="a" d="m24.3 1.9h22.7v12h-22.7z"/><path fill-rule="evenodd" class="b" d="m23.1 0.8h25.1v14.2h-25.1zm2.3 12h20.5v-9.8h-20.5z"/><path class="a" d="m47 1.9h22.8v12h-22.8z"/><path fill-rule="evenodd" class="b" d="m45.9 0.8h25.1v14.2h-25.1zm2.3 12h20.5v-9.8h-20.5z"/><path class="a" d="m69.8 1.9h22.8v12h-22.8z"/><path fill-rule="evenodd" class="b" d="m68.7 0.8h25v14.2h-25zm2.3 12h20.5v-9.8h-20.5z"/><path class="a" d="m92.6 1.9h22.8v12h-22.8z"/><path fill-rule="evenodd" class="b" d="m91.5 0.8h25v14.2h-25zm2.2 12h20.5v-9.8h-20.5z"/><path class="c" d="m16.9 56.7l-4.2-5.4 53.9-42 53.8 42-4.2 5.4-49.6-38.8z"/><path class="b" d="m84.1 14.4h18.2v5.3h-18.2z"/><path class="d" d="m53.9 68.1h25.3v51.8h-25.3z"/><path class="e" d="m19.5 118.1h94.1v7.9h-94.1z"/><path class="d" d="m66.5 55.5c-5.9 0-10.7-4.8-10.7-10.8 0-5.9 4.8-10.7 10.7-10.7 6 0 10.8 4.8 10.8 10.7 0 6-4.8 10.8-10.8 10.8z"/><path class="f" d="m66.5 53.3c-4.7 0-8.5-3.8-8.5-8.6 0-4.7 3.8-8.5 8.5-8.5 4.8 0 8.6 3.8 8.6 8.5 0 4.8-3.8 8.6-8.6 8.6z"/><path class="d" d="m73.9 50.8l-6.1-6.1 6.1-6-1.2-1.2-6.1 6-6-6-1.2 1.2 6 6-6 6.1 1.2 1.2 6-6.1 6.1 6.1z"/><path class="d" d="m33.3 63.3h12.7v46.2h-12.7z"/><path class="g" d="m66.6 17.6l-41.6 31.2v75.7h41.6z"/><path class="f" d="m57.3 71.5h18.5v13.3h-18.5z"/><path class="f" d="m57.3 88.3h18.5v13.3h-18.5z"/><path class="h" d="m35 95h9.3v12.6h-9.3z"/><path class="h" d="m35 80.1h9.3v12.6h-9.3z"/><path class="h" d="m35 65.2h9.3v12.6h-9.3z"/><path class="d" d="m87.1 63.3h12.7v46.2h-12.7z"/><path class="f" d="m88.8 95h9.3v12.6h-9.3z"/><path class="f" d="m88.8 80.1h9.3v12.6h-9.3z"/><path class="f" d="m88.8 65.2h9.3v12.6h-9.3z"/><path class="i" d="m76.9 95.9c-1 0-1.8-0.9-1.8-1.9 0-1 0.8-1.8 1.8-1.8 1 0 1.9 0.8 1.9 1.8 0 1-0.9 1.9-1.9 1.9z"/><path class="h" d="m57.3 71.5h9.3v13.3h-9.3z"/><path class="h" d="m57.3 88.3h9.3v13.3h-9.3z"/><path class="j" d="m66.6 9.3l-53.9 42 4.2 5.4 49.7-38.8v0.1z"/><path class="k" d="m19.5 118.1h47.1v7.9h-47.1z"/><path class="h" d="m60 39.3c-1.2 1.5-2 3.4-2 5.4 0 2.1 0.8 4 2 5.5l5.4-5.5z"/><path class="h" d="m66.6 36.2q0 0-0.1 0c-2 0-3.8 0.7-5.3 1.9l5.4 5.4z"/><path class="h" d="m66.5 53.3q0.1 0 0.1 0v-7.4l-5.4 5.5c1.5 1.1 3.3 1.9 5.3 1.9z"/><path class="l" d="m108.4 70.1c0-1.8 1.4-3.2 3.2-3.2h0.7c1.8 0 3.2 1.4 3.2 3.2v65.4c0 1.8-1.4 3.3-3.2 3.3h-0.7c-1.8 0-3.2-1.5-3.2-3.3z"/><path class="c" d="m79.4 78.8c0-3.4 2.7-6.1 6.1-6.1h52.9c3.4 0 6.1 2.7 6.1 6.1v18.4c0 3.4-2.7 6.1-6.1 6.1h-52.9c-3.4 0-6.1-2.7-6.1-6.1z"/><text style="transform:matrix(1,0,0,1,83.373,78.665)" ><tspan x="4.2" y="17.8" class="m">B</tspan><tspan  y="17.8" class="m">U</tspan><tspan  y="17.8" class="m">Y</tspan><tspan  y="17.8" class="m">
</tspan></text><path class="n" d="m119.9 134.4c-0.4-7.8 4-10.5 4-10.5-5.2 2.1-6.9 10.5-6.9 10.5-1.7-6.1 2.3-14.1 2.3-14.1-4 3.1-5.7 11.3-6.1 13.7 0.4-3.1-0.2-8.8-0.2-8.8-1 3.9-2.1 6.3-2.1 6.3-2.8-7.6-1.5-14.8-1.5-14.8-3.6 8.6-1.2 17.7-1.2 17.7-0.6-5.4-8.1-8.1-8.1-8.1 3.3 3.3 5 6 5.9 8-1.3-0.6-3.1-1.1-4.5-0.3 0 0 4.2 1.2 5.4 4.8q0 0 0 0h13.9c-0.6-4.2 3.1-7.5 3.1-7.5-2.1 0.6-4 3.1-4 3.1z"/></svg>