<svg version="1.2" xmlns="http://www.w3.org/2000/svg" viewBox="0 0 148 142" width="148" height="142"><defs><clipPath clipPathUnits="userSpaceOnUse" id="cp1"><path d="m68.2 17.88l-42.5 31.97v77.41h85v-77.41z"/></clipPath></defs><style>tspan{white-space:pre}.a{fill:#c49568}.b{fill:#ad825a}.c{fill:#c70a11}.d{fill:#f3eae1}.e{fill:#b1a8a1}.f{fill:#c3dceb}.g{mix-blend-mode:multiply;fill:#ede4dc}.h{fill:#9ec4d9}.i{fill:#f7ad3e}.j{fill:#ad0007}.k{fill:#a69990}.l{fill:#8c6139}.m{fill:#53820e}.n{fill:#ffae0d}.o{font-size: 24px;fill: #ffffff;font-weight: 700;font-family: "Montserrat-Bold", "Montserrat"}</style><path class="a" d="m103.1 45.7h-15.4v-27h15.4z"/><g clip-path="url(#cp1)"></g><path class="a" d="m46.7 112.7h-23.3v12.3h23.3z"/><path fill-rule="evenodd" class="b" d="m47.8 126.1h-25.6v-14.5h25.6zm-23.3-2.3h21v-10h-21z"/><path class="a" d="m70 112.7h-23.3v12.3h23.3z"/><path fill-rule="evenodd" class="b" d="m71.2 126.1h-25.7v-14.5h25.7zm-23.4-2.3h21v-10h-21z"/><path class="a" d="m93.3 112.7h-23.3v12.3h23.3z"/><path fill-rule="evenodd" class="b" d="m94.5 126.1h-25.7v-14.5h25.7zm-23.3-2.3h20.9v-10h-20.9z"/><path class="a" d="m116.6 112.7h-23.3v12.3h23.3z"/><path fill-rule="evenodd" class="b" d="m117.8 126.1h-25.7v-14.5h25.7zm-23.3-2.3h20.9v-10h-20.9z"/><path class="a" d="m142.2 112.7h-23.3v12.3h23.3z"/><path fill-rule="evenodd" class="b" d="m143.4 126.1h-25.6v-14.5h25.6zm-23.3-2.3h21v-10h-21z"/><path class="a" d="m37.4 100.4h-23.4v12.3h23.4z"/><path fill-rule="evenodd" class="b" d="m38.5 113.8h-25.6v-14.5h25.6zm-23.3-2.3h21v-10.1h-21z"/><path class="a" d="m60.7 100.4h-23.3v12.3h23.3z"/><path fill-rule="evenodd" class="b" d="m61.8 113.8h-25.6v-14.5h25.6zm-23.3-2.3h21v-10.1h-21z"/><path class="a" d="m84 100.4h-23.3v12.3h23.3z"/><path fill-rule="evenodd" class="b" d="m85.1 113.8h-25.6v-14.5h25.6zm-23.3-2.3h21v-10.1h-21z"/><path class="a" d="m107.3 100.4h-23.3v12.3h23.3z"/><path fill-rule="evenodd" class="b" d="m108.4 113.8h-25.6v-14.5h25.6zm-23.3-2.3h21v-10.1h-21z"/><path class="a" d="m130.6 100.4h-23.3v12.3h23.3z"/><path fill-rule="evenodd" class="b" d="m131.8 113.8h-25.7v-14.5h25.7zm-23.4-2.3h21v-10.1h-21z"/><path class="a" d="m45.9 88.1h-23.3v12.3h23.3z"/><path fill-rule="evenodd" class="b" d="m47.1 101.5h-25.7v-14.6h25.7zm-23.3-2.2h20.9v-10.1h-20.9z"/><path class="a" d="m69.2 88.1h-23.3v12.3h23.3z"/><path fill-rule="evenodd" class="b" d="m70.4 101.5h-25.7v-14.6h25.7zm-23.3-2.2h20.9v-10.1h-20.9z"/><path class="a" d="m92.5 88.1h-23.3v12.3h23.3z"/><path fill-rule="evenodd" class="b" d="m93.7 101.5h-25.7v-14.6h25.7zm-23.3-2.2h21v-10.1h-21z"/><path class="a" d="m115.8 88.1h-23.3v12.3h23.3z"/><path fill-rule="evenodd" class="b" d="m117 101.5h-25.6v-14.6h25.6zm-23.3-2.2h21v-10.1h-21z"/><path class="a" d="m139.1 88.1h-23.3v12.3h23.3z"/><path fill-rule="evenodd" class="b" d="m140.3 101.5h-25.6v-14.6h25.6zm-23.3-2.2h21v-10.1h-21z"/><path class="a" d="m34.2 75.7h-23.3v12.4h23.3z"/><path fill-rule="evenodd" class="b" d="m35.4 89.2h-25.6v-14.6h25.6zm-23.3-2.2h21v-10.1h-21z"/><path class="a" d="m57.6 75.7h-23.4v12.4h23.4z"/><path fill-rule="evenodd" class="b" d="m58.7 89.2h-25.6v-14.6h25.6zm-23.3-2.2h21v-10.1h-21z"/><path class="a" d="m80.9 75.7h-23.3v12.4h23.3z"/><path fill-rule="evenodd" class="b" d="m82 89.2h-25.6v-14.6h25.6zm-23.3-2.2h21v-10.1h-21z"/><path class="a" d="m104.2 75.7h-23.3v12.4h23.3z"/><path fill-rule="evenodd" class="b" d="m105.3 89.2h-25.6v-14.6h25.6zm-23.3-2.2h21v-10.1h-21z"/><path class="a" d="m127.5 75.7h-23.3v12.4h23.3z"/><path fill-rule="evenodd" class="b" d="m128.6 89.2h-25.6v-14.6h25.6zm-23.3-2.2h21v-10.1h-21z"/><path class="a" d="m42.8 63.4h-23.3v12.3h23.3z"/><path fill-rule="evenodd" class="b" d="m44 76.9h-25.7v-14.6h25.7zm-23.3-2.3h20.9v-10h-20.9z"/><path class="a" d="m66.1 63.4h-23.3v12.3h23.3z"/><path fill-rule="evenodd" class="b" d="m67.3 76.9h-25.7v-14.6h25.7zm-23.3-2.3h20.9v-10h-20.9z"/><path class="a" d="m89.4 63.4h-23.3v12.3h23.3z"/><path fill-rule="evenodd" class="b" d="m90.6 76.9h-25.7v-14.6h25.7zm-23.3-2.3h20.9v-10h-20.9z"/><path class="a" d="m112.7 63.4h-23.3v12.3h23.3z"/><path fill-rule="evenodd" class="b" d="m113.9 76.9h-25.7v-14.6h25.7zm-23.3-2.3h21v-10h-21z"/><path class="a" d="m136 63.4h-23.3v12.3h23.3z"/><path fill-rule="evenodd" class="b" d="m137.2 76.9h-25.6v-14.6h25.6zm-23.3-2.3h21v-10h-21z"/><path class="a" d="m31.1 51.1h-23.3v12.3h23.3z"/><path fill-rule="evenodd" class="b" d="m32.3 64.5h-25.6v-14.5h25.6zm-23.3-2.3h21v-10.1h-21z"/><path class="a" d="m54.5 51.1h-23.4v12.3h23.4z"/><path fill-rule="evenodd" class="b" d="m55.6 64.5h-25.6v-14.5h25.6zm-23.3-2.3h21v-10.1h-21z"/><path class="a" d="m77.8 51.1h-23.3v12.3h23.3z"/><path fill-rule="evenodd" class="b" d="m78.9 64.5h-25.6v-14.5h25.6zm-23.3-2.3h21v-10.1h-21z"/><path class="a" d="m101.1 51.1h-23.3v12.3h23.3z"/><path fill-rule="evenodd" class="b" d="m102.2 64.5h-25.6v-14.5h25.6zm-23.3-2.3h21v-10.1h-21z"/><path class="a" d="m124.4 51.1h-23.3v12.3h23.3z"/><path fill-rule="evenodd" class="b" d="m125.5 64.5h-25.6v-14.5h25.6zm-23.3-2.3h21v-10.1h-21z"/><path class="a" d="m39.7 38.8h-23.3v12.3h23.3z"/><path fill-rule="evenodd" class="b" d="m40.9 52.2h-25.7v-14.6h25.7zm-23.4-2.2h21v-10.1h-21z"/><path class="a" d="m63 38.8h-23.3v12.3h23.3z"/><path fill-rule="evenodd" class="b" d="m64.2 52.2h-25.7v-14.6h25.7zm-23.3-2.2h20.9v-10.1h-20.9z"/><path class="a" d="m86.3 38.8h-23.3v12.3h23.3z"/><path fill-rule="evenodd" class="b" d="m87.5 52.2h-25.7v-14.6h25.7zm-23.3-2.2h20.9v-10.1h-20.9z"/><path class="a" d="m109.6 38.8h-23.3v12.3h23.3z"/><path fill-rule="evenodd" class="b" d="m110.8 52.2h-25.7v-14.6h25.7zm-23.3-2.2h21v-10.1h-21z"/><path class="a" d="m132.9 38.8h-23.3v12.3h23.3z"/><path fill-rule="evenodd" class="b" d="m134.1 52.2h-25.6v-14.6h25.6zm-23.3-2.2h21v-10.1h-21z"/><path class="a" d="m28 26.4h-23.3v12.4h23.3z"/><path fill-rule="evenodd" class="b" d="m29.2 39.9h-25.6v-14.6h25.6zm-23.3-2.2h21v-10.1h-21z"/><path class="a" d="m51.3 26.4h-23.3v12.4h23.3z"/><path fill-rule="evenodd" class="b" d="m52.5 39.9h-25.6v-14.6h25.6zm-23.3-2.2h21v-10.1h-21z"/><path class="a" d="m74.7 26.4h-23.4v12.4h23.4z"/><path fill-rule="evenodd" class="b" d="m75.8 39.9h-25.6v-14.6h25.6zm-23.3-2.2h21v-10.1h-21z"/><path class="a" d="m98 26.4h-23.3v12.4h23.3z"/><path fill-rule="evenodd" class="b" d="m99.1 39.9h-25.6v-14.6h25.6zm-23.3-2.2h21v-10.1h-21z"/><path class="a" d="m121.3 26.4h-23.3v12.4h23.3z"/><path fill-rule="evenodd" class="b" d="m122.4 39.9h-25.6v-14.6h25.6zm-23.3-2.2h21v-10.1h-21z"/><path class="a" d="m36.6 14.1h-23.3v12.3h23.3z"/><path fill-rule="evenodd" class="b" d="m37.7 27.6h-25.6v-14.6h25.6zm-23.3-2.2h21v-10.1h-21z"/><path class="a" d="m59.9 14.1h-23.3v12.3h23.3z"/><path fill-rule="evenodd" class="b" d="m61.1 27.6h-25.7v-14.6h25.7zm-23.4-2.2h21v-10.1h-21z"/><path class="a" d="m83.2 14.1h-23.3v12.3h23.3z"/><path fill-rule="evenodd" class="b" d="m84.4 27.6h-25.7v-14.6h25.7zm-23.3-2.2h20.9v-10.1h-20.9z"/><path class="a" d="m106.5 14.1h-23.3v12.3h23.3z"/><path fill-rule="evenodd" class="b" d="m107.7 27.6h-25.7v-14.6h25.7zm-23.3-2.2h20.9v-10.1h-20.9z"/><path class="a" d="m129.8 14.1h-23.3v12.3h23.3z"/><path fill-rule="evenodd" class="b" d="m131 27.6h-25.7v-14.6h25.7zm-23.3-2.2h21v-10.1h-21z"/><path class="a" d="m24.9 1.8h-23.3v12.3h23.3z"/><path fill-rule="evenodd" class="b" d="m26.1 15.2h-25.6v-14.5h25.6zm-23.3-2.3h21v-10h-21z"/><path class="a" d="m48.2 1.8h-23.3v12.3h23.3z"/><path fill-rule="evenodd" class="b" d="m49.4 15.2h-25.6v-14.5h25.6zm-23.3-2.3h21v-10h-21z"/><path class="a" d="m71.5 1.8h-23.3v12.3h23.3z"/><path fill-rule="evenodd" class="b" d="m72.7 15.2h-25.6v-14.5h25.6zm-23.3-2.3h21v-10h-21z"/><path class="a" d="m94.9 1.8h-23.4v12.3h23.4z"/><path fill-rule="evenodd" class="b" d="m96 15.2h-25.6v-14.5h25.6zm-23.3-2.3h21v-10h-21z"/><path class="a" d="m118.2 1.8h-23.3v12.3h23.3z"/><path fill-rule="evenodd" class="b" d="m119.3 15.2h-25.6v-14.5h25.6zm-23.3-2.3h21v-10h-21z"/><path class="c" d="m17.4 57.9l-4.3-5.5 55.1-43 55.1 43-4.3 5.5-50.8-39.7z"/><path class="b" d="m104.8 14.7h-18.7v5.3h18.7z"/><path class="d" d="m81.1 69.6h-25.8v53h25.8z"/><path class="e" d="m116.3 128.8h-96.2v-8.1h96.2z"/><path class="d" d="m79.2 45.7c0 6-4.9 11-11 11-6.1 0-11-5-11-11 0-6.1 4.9-11 11-11 6.1 0 11 4.9 11 11z"/><path class="f" d="m76.9 45.7c0 4.8-3.9 8.7-8.7 8.7-4.8 0-8.7-3.9-8.7-8.7 0-4.9 3.9-8.8 8.7-8.8 4.8 0 8.7 3.9 8.7 8.8z"/><path class="d" d="m75.7 51.9l-6.2-6.2 6.2-6.2-1.3-1.2-6.1 6.1-6.2-6.1-1.3 1.2 6.2 6.2-6.2 6.2 1.3 1.2 6.2-6.2 6.1 6.2z"/><path class="d" d="m47.2 64.6h-13v47.4h13z"/><path class="g" d="m68.3 17.9h-0.1l-42.5 32v77.4h42.6z"/><path class="f" d="m77.7 86.6h-19v-13.6h19z"/><path class="f" d="m77.7 103.9h-19v-13.6h19z"/><path class="h" d="m45.4 110h-9.5v-12.9h9.5z"/><path class="h" d="m45.4 94.7h-9.5v-12.9h9.5z"/><path class="h" d="m45.4 79.5h-9.5v-12.9h9.5z"/><path class="d" d="m89.2 64.6h13v47.4h-13z"/><path class="f" d="m91 110h9.5v-12.9h-9.5z"/><path class="f" d="m91 94.7h9.5v-12.9h-9.5z"/><path class="f" d="m91 79.5h9.5v-12.9h-9.5z"/><path class="i" d="m80.7 96.1c0 1-0.8 1.9-1.9 1.9-1 0-1.9-0.9-1.9-1.9 0-1.1 0.9-1.9 1.9-1.9 1.1 0 1.9 0.8 1.9 1.9z"/><path class="h" d="m58.7 86.6h9.6v-13.6h-9.6z"/><path class="h" d="m58.7 103.9h9.6v-13.6h-9.6z"/><path class="j" d="m68.3 9.4h-0.1l-55.1 43 4.3 5.5 50.8-39.7 0.1 0.1z"/><path class="k" d="m68.3 120.7h-48.2v8.1h48.2z"/><path class="h" d="m61.5 40.1c-1.3 1.5-2 3.5-2 5.6 0 2.1 0.7 4 2 5.5l5.5-5.5z"/><path class="h" d="m68.3 36.9q-0.1 0-0.1 0c-2.1 0-4 0.8-5.5 2l5.6 5.5z"/><path class="h" d="m68.2 54.4q0 0 0.1 0v-7.5l-5.6 5.5c1.5 1.3 3.4 2 5.5 2z"/><path class="l" d="m118 138.6c0 1.8-1.5 3.3-3.3 3.3h-0.7c-1.8 0-3.3-1.5-3.3-3.3v-67c0-1.8 1.5-3.3 3.3-3.3h0.7c1.8 0 3.3 1.5 3.3 3.3z"/><path class="m" d="m122.4 137.4c-0.4-8 4.1-10.7 4.1-10.7-5.2 2.1-7 10.7-7 10.7-1.7-6.2 2.3-14.4 2.3-14.4-4.1 3.1-5.8 11.5-6.2 14 0.4-3.2-0.2-9-0.2-9-1.1 3.9-2.1 6.5-2.1 6.5-2.9-7.8-1.5-15.2-1.5-15.2-3.7 8.8-1.3 18.1-1.3 18.1-0.6-5.5-8.3-8.3-8.3-8.3 3.4 3.4 5.2 6.1 6.1 8.2-1.3-0.5-3.2-1.1-4.7-0.3 0 0 4.3 1.2 5.6 4.9q-0.1 0-0.1 0h14.3c-0.6-4.3 3.1-7.6 3.1-7.6-2.1 0.6-4.1 3.1-4.1 3.1z"/><path class="n" d="m147.7 99.2c0 3.4-2.8 6.1-6.2 6.1h-54.3c-3.4 0-6.2-2.7-6.2-6.1v-19.1c0-3.4 2.8-6.2 6.2-6.2h54.3c3.4 0 6.2 2.8 6.2 6.2z"/><text style="transform:matrix(.861,0,0,.861,88.935,97.369)" ><tspan x="0" y="0" class="o">S</tspan><tspan  y="0" class="o">E</tspan><tspan  y="0" class="o">L</tspan><tspan  y="0" class="o">L
</tspan></text></svg>